# Blender v2.79 (sub 0) OBJ File: 'stones.blend'
# www.blender.org
mtllib stones.mtl
o stone002_Cube.001
v -0.002677 0.905484 -1.683893
v -0.043461 -0.004142 -1.456194
v 1.258230 0.923618 -0.924252
v 1.755593 -0.004142 -1.187136
v 1.083501 1.028115 0.344128
v 1.508720 0.005220 0.429605
v -0.421146 0.530239 0.891103
v 0.083960 -0.016567 1.713836
v 0.263385 1.000362 -0.388914
v -0.726768 0.674281 -0.596899
v -1.471238 -0.013768 0.355032
v 0.856503 0.005472 1.090514
v 0.387366 0.774226 0.649781
v -0.023069 0.450671 -1.570044
v 1.502936 0.443641 -1.042322
v 1.293441 0.505862 0.395843
v -0.168593 0.256836 1.302470
v -1.099003 0.330256 -0.120934
v 0.737424 0.411245 0.906223
v 1.201174 1.098589 -0.392008
v 1.632156 0.000539 -0.378766
v 1.411954 0.530488 -0.369540
v 0.556224 -0.004142 -1.366508
v 1.155908 -0.004142 -1.276822
v 0.837927 0.917573 -1.177465
v 0.417625 0.911529 -1.430679
v 0.491513 0.389727 -1.560622
v 1.000181 0.387383 -1.384715
vn 0.0338 0.9962 -0.0799
vn 0.4670 0.4359 -0.7693
vn -0.1040 0.9899 -0.0959
vn 0.9160 0.3648 0.1672
vn -0.2281 0.9453 0.2330
vn 0.0687 0.7525 0.6550
vn -0.3388 0.9273 0.1594
vn -0.6979 0.6286 0.3432
vn -0.3117 0.9502 -0.0056
vn -0.8132 -0.0295 -0.5813
vn 0.3683 0.5048 0.7807
vn 0.6241 0.3927 0.6755
vn -0.7904 -0.0615 -0.6095
vn -0.4855 0.7469 0.4542
vn 0.3054 0.7168 0.6268
vn 0.9102 0.3881 0.1448
vn 0.3475 0.2093 -0.9140
vn 0.9017 0.4196 0.1046
vn 0.9177 0.3964 0.0266
vn 0.0651 -0.3374 -0.9391
vn 0.2221 -0.2950 -0.9293
vn 0.2720 0.0307 -0.9618
vn 0.3902 0.3593 -0.8477
usemtl stone
s off
f 1//1 9//1 3//1 25//1 26//1
f 28//2 25//2 3//2 15//2
f 3//3 9//3 5//3 20//3
f 22//4 20//4 5//4 16//4
f 5//5 9//5 7//5 13//5
f 19//6 13//6 7//6 17//6
f 7//7 9//7 10//7
f 17//8 7//8 10//8 18//8
f 10//9 9//9 1//9
f 14//10 18//10 10//10 1//10
f 16//11 5//11 13//11 19//11
f 6//12 16//12 19//12 12//12
f 2//13 11//13 18//13 14//13
f 8//14 17//14 18//14 11//14
f 12//15 19//15 17//15 8//15
f 21//16 22//16 16//16 6//16
f 24//17 28//17 15//17 4//17
f 4//18 15//18 22//18 21//18
f 15//19 3//19 20//19 22//19
f 2//20 14//20 27//20 23//20
f 23//21 27//21 28//21 24//21
f 14//22 1//22 26//22 27//22
f 27//23 26//23 25//23 28//23
